<?xml version="1.0" encoding="iso-8859-1"?><!DOCTYPE svg PUBLIC "-//W3C//DTD SVG 1.1//EN" "http://www.w3.org/Graphics/SVG/1.1/DTD/svg11.dtd"><svg xmlns="http://www.w3.org/2000/svg" xmlns:xlink="http://www.w3.org/1999/xlink"><symbol viewBox="0 0 444.819 444.819" id="arrow" xmlns="http://www.w3.org/2000/svg"><path d="M352.025 196.712L165.884 10.848C159.029 3.615 150.469 0 140.187 0s-18.842 3.619-25.697 10.848L92.792 32.264c-7.044 7.043-10.566 15.604-10.566 25.692 0 9.897 3.521 18.56 10.566 25.981L231.545 222.41 92.786 361.168c-7.042 7.043-10.564 15.604-10.564 25.693 0 9.896 3.521 18.562 10.564 25.98l21.7 21.413c7.043 7.043 15.612 10.564 25.697 10.564 10.089 0 18.656-3.521 25.697-10.564L352.025 248.39c7.046-7.423 10.571-16.084 10.571-25.981.001-10.088-3.525-18.654-10.571-25.697z"/></symbol><symbol viewBox="0 0 216 195" id="darthvader" xmlns="http://www.w3.org/2000/svg"><g fill="none" fill-rule="evenodd"><path d="M204 177c1.944-1.506 6.702-2.976 8.496-4.572L180 95.25S151.146 9 115.548 9h-15.096C64.854 9 36 95.25 36 95.25L3.504 172.428c1.794 1.596 6.552 3.066 8.496 4.572h192z" fill="#323232"/><path d="M48 117l24 42 30-42H48zM144 159l24-42h-54l30 42z" fill="#505050"/><path d="M54 103.5c0-4.122 2.22-10.158 4.932-13.404 0 0 7.602-9.096 23.07-9.096 7.842 0 13.314 3.378 13.314 3.378C98.994 86.646 102 91.878 102 96v11.25c0 2.064-3.6 3.75-7.998 3.75H61.998C57.6 111 54 107.622 54 103.5M154 111h-31.998c-4.404 0-8.004-1.686-8.004-3.75V96c0-4.128 3.012-9.354 6.684-11.622 0 0 5.472-3.378 13.32-3.378 15.462 0 23.064 9.096 23.064 9.096 2.712 3.246 4.932 9.282 4.932 13.404 0 4.128-3.6 7.5-7.998 7.5" fill="#000"/><path d="M180 81V67.452c0-34.854-27.678-63.168-62.244-64.338C116.106 1.218 113.706 0 111 0h-6c-2.706 0-5.106 1.218-6.756 3.114C63.678 4.284 36 32.598 36 67.452V81L0 177h12l31.668-77.094c8.13-20.316 19.392-28.98 37.674-28.98C93.84 70.926 101.574 80.688 102 81h12c.426-.312 8.16-10.074 20.658-10.074 18.282 0 29.544 8.664 37.662 28.95L204 177h12l-36-96z" fill="#000"/><path d="M53.919 63a2.808 2.808 0 0 1-2.808-2.808c0-23.202 18.876-42.078 42.084-42.078a2.803 2.803 0 0 1 2.802 2.808 2.801 2.801 0 0 1-2.802 2.802c-20.112 0-36.468 16.362-36.468 36.468A2.808 2.808 0 0 1 53.919 63" fill="#1A1A1A"/><path d="M108 117c-3.312 0-6 2.682-6 6v6h12v-6c0-3.318-2.688-6-6-6m45 60c-3.312 0-6 2.688-6 6s2.688 6 6 6 6-2.688 6-6-2.688-6-6-6m-90 0c-3.312 0-6 2.688-6 6s2.688 6 6 6 6-2.688 6-6-2.688-6-6-6" fill="#FFF"/><path d="M158.745 172.53l9.252-55.53-24 42-24-33.6V123c0-6.617-5.376-12-12-12-6.618 0-12 5.383-12 12v2.4l-24 33.6-24-42 9.258 55.53c-3.708 2.047-6.258 5.947-6.258 10.47 0 6.619 5.382 12 12 12 4.428 0 8.25-2.43 10.332-6h69.342c2.076 3.57 5.904 6 10.326 6 6.624 0 12-5.381 12-12 0-4.523-2.544-8.423-6.252-10.47" fill="#000"/><path d="M84 177h12v-31.542l-12 16.458V177zM120 145.457V177h12v-15.084l-12-16.458zM102 177h12v-36h-12v36z" fill="#323232"/><path d="M108 117c-3.312 0-6 2.682-6 6v6h12v-6c0-3.318-2.688-6-6-6m45 60c-3.312 0-6 2.688-6 6s2.688 6 6 6 6-2.688 6-6-2.688-6-6-6m-90 0c-3.312 0-6 2.688-6 6s2.688 6 6 6 6-2.688 6-6-2.688-6-6-6" fill="#FFF"/></g></symbol><symbol viewBox="0 0 491.236 491.236" id="refresh" xmlns="http://www.w3.org/2000/svg"><path d="M55.89 262.818c-3-26-.5-51.1 6.3-74.3 22.6-77.1 93.5-133.8 177.6-134.8v-50.4c0-2.8 3.5-4.3 5.8-2.6l103.7 76.2c1.7 1.3 1.7 3.9 0 5.1l-103.6 76.2c-2.4 1.7-5.8.2-5.8-2.6v-50.3c-55.3.9-102.5 35-122.8 83.2-7.7 18.2-11.6 38.3-10.5 59.4 1.5 29 12.4 55.7 29.6 77.3 9.2 11.5 7 28.3-4.9 37-11.3 8.3-27.1 6-35.8-5-21.3-26.6-35.5-59-39.6-94.4zm299.4-96.8c17.3 21.5 28.2 48.3 29.6 77.3 1.1 21.2-2.9 41.3-10.5 59.4-20.3 48.2-67.5 82.4-122.8 83.2v-50.3c0-2.8-3.5-4.3-5.8-2.6l-103.7 76.2c-1.7 1.3-1.7 3.9 0 5.1l103.6 76.2c2.4 1.7 5.8.2 5.8-2.6v-50.4c84.1-.9 155.1-57.6 177.6-134.8 6.8-23.2 9.2-48.3 6.3-74.3-4-35.4-18.2-67.8-39.5-94.4-8.8-11-24.5-13.3-35.8-5-11.8 8.7-14 25.5-4.8 37z"/></symbol><symbol viewBox="0 0 56.966 56.966" id="search" xmlns="http://www.w3.org/2000/svg"><path d="M55.146 51.887L41.588 37.786A22.926 22.926 0 0 0 46.984 23c0-12.682-10.318-23-23-23s-23 10.318-23 23 10.318 23 23 23c4.761 0 9.298-1.436 13.177-4.162l13.661 14.208c.571.593 1.339.92 2.162.92.779 0 1.518-.297 2.079-.837a3.004 3.004 0 0 0 .083-4.242zM23.984 6c9.374 0 17 7.626 17 17s-7.626 17-17 17-17-7.626-17-17 7.626-17 17-17z"/></symbol></svg>